<svg xmlns="http://www.w3.org/2000/svg" xmlns:xlink="http://www.w3.org/1999/xlink" width="393px" height="63px" viewBox="0 0 393 63">

    <defs>
        <linearGradient id="gradient-bg" x1="0%" y1="0%" x2="100%" y2="0%" gradientUnits="userSpaceOnUse">
            <stop offset="0%" stop-color="#8e0ab1"></stop>
            <stop offset="100%" stop-color="#41047e"></stop>
        </linearGradient>
    </defs>

    <g fill="url(#gradient-bg)">
        <path d="M0 0 V63 H58 V59 H32 V0 Z"/>
        <path d="M65 0 V63 H125 V59 H97 V33 H118 V29 H97 V4 H125 V0 Z"/>
        <path d="M134 0 V63 H179 V59 H166 V4 H179 V0 Z"/>
        <path d="M179 0 V63 C223 68 223 -4 179 0 Z"/>
        <path d="M219 22 V50 C220 61 224 63 236 63 S250 61 251 58 V55 H249 C248 61 244 61 238 61 V39 H246 V37 H238 V22 Z"/>
        <path d="M254 47 V50 C255 61 259 63 276 63 S295 62 296 55 V54 H294 C294 63 275 61 273 60 V47 Z"/>
        <path d="M254 47 H273 V31 C269 31 255 32 254 46 Z"/>
        <path d="M273 47 H296 C297 32 285 31 273 31 V34 C285 33 293 37 293 44 H273 Z"/>
        <path d="M300 47 V50 C301 61 305 63 322 63 S341 62 342 55 V54 H340 C340 63 321 61 319 60 V47 Z"/>
        <path d="M300 47 V50 C301 61 305 63 322 63 S341 62 342 55 V54 H340 C340 63 321 61 319 60 V47 Z" transform="translate(0,94) scale(1,-1)"/>
        <path d="M346 22 V63 H365 V40 C365 32 374 32 374 40 V63 H393 V45 C393 39 389 30 365 31 V22 Z"/>
    </g>
</svg>
